RobotoAvar2-XTUC741.ufo
<glyph name="A" format="2">
  <advance width="2354"/>
  <unicode hex="0041"/>
  <anchor x="1173" y="0.0" name="bottom"/>
  <anchor x="2113" y="0.0" name="ogonek"/>
  <anchor x="1173" y="1456.0" name="top"/>
  <anchor x="322.57503482079153" y="1074.0" name="tonos"/>
  <outline>
    <contour>
      <point x="42" y="0" type="line"/>
      <point x="1087" y="1466" type="line"/>
      <point x="1259" y="1466" type="line"/>
      <point x="2313" y="0" type="line"/>
      <point x="2082" y="0" type="line"/>
      <point x="1252" y="1157" type="line" smooth="yes"/>
      <point x="1231" y="1186"/>
      <point x="1191" y="1252"/>
      <point x="1176" y="1285" type="qcurve"/>
      <point x="1166" y="1285" type="line"/>
      <point x="1151" y="1252"/>
      <point x="1107" y="1184"/>
      <point x="1088" y="1157" type="qcurve" smooth="yes"/>
      <point x="266" y="0" type="line"/>
    </contour>
    <contour>
      <point x="417" y="380" type="line"/>
      <point x="527" y="538" type="line"/>
      <point x="1812" y="538" type="line"/>
      <point x="1921" y="380" type="line"/>
    </contour>
  </outline>
</glyph>
<glyph name="T" format="2">
  <advance width="2156"/>
  <unicode hex="0054"/>
  <anchor x="1082" y="0.0" name="bottom"/>
  <anchor x="1082" y="728.0" name="center"/>
  <anchor x="1082" y="1456.0" name="top"/>
  <anchor x="1086" y="0.0" name="cy_descender"/>
  <outline>
    <contour>
      <point x="982" y="0" type="line"/>
      <point x="982" y="1377" type="line"/>
      <point x="1174" y="1377" type="line"/>
      <point x="1174" y="0" type="line"/>
    </contour>
    <contour>
      <point x="24" y="1298" type="line"/>
      <point x="24" y="1456" type="line"/>
      <point x="2132" y="1456" type="line"/>
      <point x="2132" y="1298" type="line"/>
    </contour>
  </outline>
</glyph>
<glyph name="X" format="2">
  <advance width="2120"/>
  <unicode hex="0058"/>
  <anchor x="1063" y="0.0" name="bottom"/>
  <anchor x="1063" y="1456.0" name="top"/>
  <anchor x="1888" y="0.0" name="cy_descender"/>
  <outline>
    <contour>
      <point x="25" y="0" type="line"/>
      <point x="1004" y="806" type="line"/>
      <point x="1022" y="806" type="line"/>
      <point x="1804" y="1456" type="line"/>
      <point x="2072" y="1456" type="line"/>
      <point x="1113" y="670" type="line"/>
      <point x="1094" y="670" type="line"/>
      <point x="293" y="0" type="line"/>
    </contour>
    <contour>
      <point x="50" y="1456" type="line"/>
      <point x="316" y="1456" type="line"/>
      <point x="1090" y="806" type="line"/>
      <point x="1103" y="806" type="line"/>
      <point x="2095" y="0" type="line"/>
      <point x="1824" y="0" type="line"/>
      <point x="1009" y="670" type="line"/>
      <point x="996" y="670" type="line"/>
    </contour>
  </outline>
</glyph>
<glyph name="Y" format="2">
  <advance width="2049"/>
  <unicode hex="0059"/>
  <anchor x="1022" y="0.0" name="bottom"/>
  <anchor x="1029" y="1455.0" name="top"/>
  <anchor x="-175" y="1074.0" name="tonos"/>
  <outline>
    <contour>
      <point x="929" y="0" type="line"/>
      <point x="929" y="544" type="line"/>
      <point x="15" y="1456" type="line"/>
      <point x="267" y="1456" type="line"/>
      <point x="930" y="780" type="line" smooth="yes"/>
      <point x="954" y="755"/>
      <point x="1005" y="700"/>
      <point x="1024" y="673" type="qcurve"/>
      <point x="1030" y="673" type="line"/>
      <point x="1049" y="700"/>
      <point x="1100" y="756"/>
      <point x="1124" y="780" type="qcurve" smooth="yes"/>
      <point x="1792" y="1456" type="line"/>
      <point x="2034" y="1456" type="line"/>
      <point x="1121" y="544" type="line"/>
      <point x="1121" y="0" type="line"/>
    </contour>
  </outline>
</glyph>
<glyph name="OE" format="2">
  <advance width="3089"/>
  <unicode hex="0152"/>
  <outline>
    <contour>
      <point x="1124" y="-21" type="qcurve" smooth="yes"/>
      <point x="685" y="-21"/>
      <point x="115" y="340"/>
      <point x="115" y="682" type="qcurve" smooth="yes"/>
      <point x="115" y="772" type="line" smooth="yes"/>
      <point x="115" y="1105"/>
      <point x="684" y="1477"/>
      <point x="1124" y="1477" type="qcurve" smooth="yes"/>
      <point x="1240" y="1477"/>
      <point x="1516" y="1464"/>
      <point x="1631" y="1456" type="qcurve"/>
      <point x="3011" y="1456" type="line"/>
      <point x="3011" y="1298" type="line"/>
      <point x="1738" y="1298" type="line"/>
      <point x="1738" y="158" type="line"/>
      <point x="3021" y="158" type="line"/>
      <point x="3021" y="0" type="line"/>
      <point x="1632" y="0" type="line"/>
      <point x="1538" y="-7"/>
      <point x="1259" y="-21"/>
    </contour>
    <contour>
      <point x="1124" y="128" type="qcurve" smooth="yes"/>
      <point x="1234" y="128"/>
      <point x="1478" y="141"/>
      <point x="1546" y="143" type="qcurve"/>
      <point x="1546" y="1310" type="line"/>
      <point x="1453" y="1313"/>
      <point x="1235" y="1325"/>
      <point x="1124" y="1325" type="qcurve" smooth="yes"/>
      <point x="771" y="1325"/>
      <point x="310" y="1030"/>
      <point x="310" y="774" type="qcurve" smooth="yes"/>
      <point x="310" y="682" type="line" smooth="yes"/>
      <point x="310" y="418"/>
      <point x="772" y="128"/>
    </contour>
    <contour>
      <point x="1642" y="672" type="line"/>
      <point x="1642" y="830" type="line"/>
      <point x="2919" y="830" type="line"/>
      <point x="2919" y="672" type="line"/>
    </contour>
  </outline>
</glyph>
<glyph name="Delta" format="2">
  <advance width="2054"/>
  <unicode hex="0394"/>
  <outline>
    <contour>
      <point x="29" y="0" type="line"/>
      <point x="29" y="107" type="line"/>
      <point x="941" y="1466" type="line"/>
      <point x="1113" y="1466" type="line"/>
      <point x="2026" y="107" type="line"/>
      <point x="2026" y="0" type="line"/>
    </contour>
    <contour>
      <point x="240" y="158" type="line"/>
      <point x="1807" y="158" type="line"/>
      <point x="1107" y="1100" type="line" smooth="yes"/>
      <point x="1082" y="1133"/>
      <point x="1044" y="1195"/>
      <point x="1030" y="1228" type="qcurve"/>
      <point x="1020" y="1228" type="line"/>
      <point x="1007" y="1195"/>
      <point x="968" y="1133"/>
      <point x="943" y="1100" type="qcurve" smooth="yes"/>
    </contour>
  </outline>
</glyph>
<glyph name="Phi" format="2">
  <advance width="2545"/>
  <unicode hex="03A6"/>
  <outline>
    <contour>
      <point x="1180" y="-20" type="line"/>
      <point x="1180" y="242" type="line"/>
      <point x="1180" y="285" type="line"/>
      <point x="1180" y="1192" type="line"/>
      <point x="1180" y="1228" type="line"/>
      <point x="1180" y="1476" type="line"/>
      <point x="1365" y="1476" type="line"/>
      <point x="1365" y="1230" type="line"/>
      <point x="1365" y="1193" type="line"/>
      <point x="1365" y="283" type="line"/>
      <point x="1365" y="240" type="line"/>
      <point x="1365" y="-20" type="line"/>
    </contour>
    <contour>
      <point x="952" y="194" type="line" smooth="yes"/>
      <point x="535" y="194"/>
      <point x="105" y="486"/>
      <point x="105" y="739" type="qcurve" smooth="yes"/>
      <point x="105" y="992"/>
      <point x="535" y="1283"/>
      <point x="952" y="1283" type="qcurve" smooth="yes"/>
      <point x="1593" y="1283" type="line" smooth="yes"/>
      <point x="2010" y="1283"/>
      <point x="2440" y="991"/>
      <point x="2440" y="738" type="qcurve" smooth="yes"/>
      <point x="2440" y="485"/>
      <point x="2010" y="194"/>
      <point x="1593" y="194" type="qcurve" smooth="yes"/>
    </contour>
    <contour>
      <point x="952" y="345" type="qcurve" smooth="yes"/>
      <point x="1593" y="345" type="line" smooth="yes"/>
      <point x="1944" y="345"/>
      <point x="2255" y="545"/>
      <point x="2255" y="736" type="qcurve" smooth="yes"/>
      <point x="2255" y="925"/>
      <point x="1944" y="1132"/>
      <point x="1593" y="1132" type="qcurve" smooth="yes"/>
      <point x="952" y="1132" type="line" smooth="yes"/>
      <point x="601" y="1132"/>
      <point x="290" y="932"/>
      <point x="290" y="741" type="qcurve" smooth="yes"/>
      <point x="290" y="552"/>
      <point x="601" y="345"/>
    </contour>
  </outline>
</glyph>
<glyph name="Nje" format="2">
  <advance width="2766"/>
  <unicode hex="040A"/>
  <outline>
    <contour>
      <point x="170" y="0" type="line"/>
      <point x="362" y="0" type="line"/>
      <point x="362" y="1456" type="line"/>
      <point x="170" y="1456" type="line"/>
    </contour>
    <contour>
      <point x="1366" y="0" type="line"/>
      <point x="2058" y="0" type="line" smooth="yes"/>
      <point x="2398" y="0"/>
      <point x="2716" y="241"/>
      <point x="2716" y="437" type="qcurve" smooth="yes"/>
      <point x="2716" y="633"/>
      <point x="2398" y="870"/>
      <point x="2058" y="870" type="qcurve" smooth="yes"/>
      <point x="1487" y="870" type="line"/>
      <point x="1487" y="712" type="line"/>
      <point x="2058" y="712" type="line" smooth="yes"/>
      <point x="2328" y="712"/>
      <point x="2524" y="554"/>
      <point x="2524" y="437" type="qcurve" smooth="yes"/>
      <point x="2524" y="320"/>
      <point x="2328" y="158"/>
      <point x="2058" y="158" type="qcurve" smooth="yes"/>
      <point x="1558" y="158" type="line"/>
      <point x="1558" y="1456" type="line"/>
      <point x="1366" y="1456" type="line"/>
    </contour>
    <contour>
      <point x="272" y="712" type="line"/>
      <point x="1455" y="712" type="line"/>
      <point x="1455" y="870" type="line"/>
      <point x="272" y="870" type="line"/>
    </contour>
  </outline>
</glyph>
<glyph name="Sha" format="2">
  <advance width="2684"/>
  <unicode hex="0428"/>
  <anchor x="2422" y="0" name="cy_descender"/>
  <outline>
    <contour>
      <point x="170" y="1456" type="line"/>
      <point x="362" y="1456" type="line"/>
      <point x="362" y="158" type="line"/>
      <point x="1246" y="158" type="line"/>
      <point x="1246" y="1456" type="line"/>
      <point x="1438" y="1456" type="line"/>
      <point x="1438" y="158" type="line"/>
      <point x="2322" y="158" type="line"/>
      <point x="2322" y="1456" type="line"/>
      <point x="2514" y="1456" type="line"/>
      <point x="2514" y="0" type="line"/>
      <point x="170" y="0" type="line"/>
    </contour>
  </outline>
</glyph>
<glyph name="Hard" format="2">
  <advance width="2069"/>
  <unicode hex="042A"/>
  <outline>
    <contour>
      <point x="299" y="0" type="line"/>
      <point x="299" y="1298" type="line"/>
      <point x="24" y="1298" type="line"/>
      <point x="24" y="1456" type="line"/>
      <point x="491" y="1456" type="line"/>
      <point x="491" y="158" type="line"/>
      <point x="1321" y="158" type="line" smooth="yes"/>
      <point x="1591" y="158"/>
      <point x="1827" y="325"/>
      <point x="1827" y="445" type="qcurve" smooth="yes"/>
      <point x="1827" y="565"/>
      <point x="1591" y="728"/>
      <point x="1321" y="728" type="qcurve" smooth="yes"/>
      <point x="408" y="728" type="line"/>
      <point x="408" y="886" type="line"/>
      <point x="1321" y="886" type="line" smooth="yes"/>
      <point x="1661" y="886"/>
      <point x="2019" y="645"/>
      <point x="2019" y="445" type="qcurve" smooth="yes"/>
      <point x="2019" y="245"/>
      <point x="1661" y="0"/>
      <point x="1321" y="0" type="qcurve" smooth="yes"/>
    </contour>
  </outline>
</glyph>
<glyph name="Soft" format="2">
  <advance width="1940"/>
  <unicode hex="042C"/>
  <outline>
    <contour>
      <point x="170" y="0" type="line"/>
      <point x="170" y="1456" type="line"/>
      <point x="362" y="1456" type="line"/>
      <point x="362" y="158" type="line"/>
      <point x="1192" y="158" type="line" smooth="yes"/>
      <point x="1462" y="158"/>
      <point x="1698" y="325"/>
      <point x="1698" y="445" type="qcurve" smooth="yes"/>
      <point x="1698" y="565"/>
      <point x="1462" y="728"/>
      <point x="1192" y="728" type="qcurve" smooth="yes"/>
      <point x="272" y="728" type="line"/>
      <point x="272" y="886" type="line"/>
      <point x="1192" y="886" type="line" smooth="yes"/>
      <point x="1532" y="886"/>
      <point x="1890" y="645"/>
      <point x="1890" y="445" type="qcurve" smooth="yes"/>
      <point x="1890" y="245"/>
      <point x="1532" y="0"/>
      <point x="1192" y="0" type="qcurve" smooth="yes"/>
    </contour>
  </outline>
</glyph>
<glyph name="Cheverticalstroke-cy" format="2">
  <advance width="2128"/>
  <unicode hex="04B8"/>
  <outline>
    <contour>
      <point x="1136" y="1106" type="line"/>
      <point x="1136" y="250" type="line"/>
      <point x="966" y="250" type="line"/>
      <point x="966" y="1106" type="line"/>
    </contour>
    <contour>
      <point x="332" y="1032" type="line" smooth="yes"/>
      <point x="332" y="854"/>
      <point x="665" y="734"/>
      <point x="1063" y="734" type="qcurve" smooth="yes"/>
      <point x="1182" y="734"/>
      <point x="1763" y="754"/>
      <point x="1863" y="775" type="qcurve"/>
      <point x="1863" y="617" type="line"/>
      <point x="1729" y="595"/>
      <point x="1173" y="576"/>
      <point x="1048" y="576" type="qcurve" smooth="yes"/>
      <point x="537" y="576"/>
      <point x="140" y="807"/>
      <point x="140" y="1035" type="qcurve" smooth="yes"/>
      <point x="140" y="1456" type="line"/>
      <point x="332" y="1456" type="line"/>
    </contour>
    <contour>
      <point x="1958" y="1456" type="line"/>
      <point x="1958" y="0" type="line"/>
      <point x="1766" y="0" type="line"/>
      <point x="1766" y="1456" type="line"/>
    </contour>
  </outline>
</glyph>
<glyph name="Germandbls" format="2">
  <advance width="1785"/>
  <unicode hex="1E9E"/>
  <outline>
    <contour>
      <point x="178" y="1066" type="line" smooth="yes"/>
      <point x="178" y="1267"/>
      <point x="468" y="1510"/>
      <point x="703" y="1510" type="qcurve" smooth="yes"/>
      <point x="938" y="1510"/>
      <point x="1212" y="1347"/>
      <point x="1212" y="1244" type="qcurve" smooth="yes"/>
      <point x="1212" y="1142"/>
      <point x="1057" y="1012"/>
      <point x="951" y="963" type="qcurve" smooth="yes"/>
      <point x="860" y="921"/>
      <point x="775" y="881"/>
      <point x="775" y="861" type="qcurve" smooth="yes"/>
      <point x="775" y="841"/>
      <point x="920" y="811"/>
      <point x="1181" y="746" type="qcurve" smooth="yes"/>
      <point x="1446" y="680"/>
      <point x="1705" y="486"/>
      <point x="1705" y="336" type="qcurve" smooth="yes"/>
      <point x="1705" y="190"/>
      <point x="1372" y="-30"/>
      <point x="1077" y="-30" type="qcurve" smooth="yes"/>
      <point x="787" y="-30"/>
      <point x="465" y="152"/>
      <point x="465" y="338" type="qcurve" smooth="yes"/>
      <point x="465" y="350" type="line"/>
      <point x="658" y="350" type="line"/>
      <point x="658" y="338" type="line" smooth="yes"/>
      <point x="658" y="238"/>
      <point x="868" y="135"/>
      <point x="1073" y="135" type="qcurve" smooth="yes"/>
      <point x="1275" y="135"/>
      <point x="1508" y="241"/>
      <point x="1508" y="330" type="qcurve" smooth="yes"/>
      <point x="1508" y="427"/>
      <point x="1321" y="521"/>
      <point x="1078" y="584" type="qcurve" smooth="yes"/>
      <point x="755" y="668"/>
      <point x="589" y="760"/>
      <point x="589" y="831" type="qcurve" smooth="yes"/>
      <point x="589" y="904"/>
      <point x="694" y="989"/>
      <point x="827" y="1056" type="qcurve" smooth="yes"/>
      <point x="926" y="1106"/>
      <point x="1014" y="1172"/>
      <point x="1014" y="1229" type="qcurve" smooth="yes"/>
      <point x="1014" y="1284"/>
      <point x="869" y="1348"/>
      <point x="720" y="1348" type="qcurve" smooth="yes"/>
      <point x="549" y="1348"/>
      <point x="370" y="1198"/>
      <point x="370" y="1036" type="qcurve" smooth="yes"/>
      <point x="370" y="355" type="line" smooth="yes"/>
      <point x="370" y="184"/>
      <point x="203" y="-16"/>
      <point x="68" y="-16" type="qcurve" smooth="yes"/>
      <point x="55" y="-16"/>
      <point x="28" y="-14"/>
      <point x="15" y="-12" type="qcurve"/>
      <point x="13" y="172" type="line"/>
      <point x="22" y="169"/>
      <point x="41" y="167"/>
      <point x="50" y="167" type="qcurve" smooth="yes"/>
      <point x="110" y="167"/>
      <point x="178" y="264"/>
      <point x="178" y="355" type="qcurve" smooth="yes"/>
    </contour>
  </outline>
</glyph>
<glyph name="U-stroke" format="2">
  <advance width="1988"/>
  <outline>
    <contour>
      <point x="198" y="544" type="line"/>
      <point x="1790" y="544" type="line"/>
      <point x="1790" y="378" type="line"/>
      <point x="198" y="378" type="line"/>
    </contour>
  </outline>
</glyph>
<glyph name="acutecomb.case" format="2">
  <anchor x="0" y="1456" name="_top"/>
  <anchor x="0" y="1974" name="top"/>
  <outline>
    <contour>
      <point x="-101" y="1675" type="line"/>
      <point x="91" y="1974" type="line"/>
      <point x="248" y="1876" type="line"/>
      <point x="11" y="1600" type="line"/>
    </contour>
  </outline>
</glyph>
<glyph name="acutecombstack.case" format="2">
  <anchor x="0" y="1536" name="_top"/>
  <anchor x="0" y="1941" name="top"/>
  <outline>
    <contour>
      <point x="-241" y="1730" type="line"/>
      <point x="256" y="1857" type="line"/>
      <point x="313" y="1688" type="line"/>
      <point x="-209" y="1605" type="line"/>
    </contour>
  </outline>
</glyph>
<glyph name="breveinvertedcomb-stack.case" format="2">
  <anchor x="0" y="1456" name="_top"/>
  <anchor x="0" y="1906" name="top"/>
  <outline>
    <contour>
      <point x="-421" y="1608" type="qcurve"/>
      <point x="-533" y="1659" type="line"/>
      <point x="-475" y="1753"/>
      <point x="-216" y="1910"/>
      <point x="-9" y="1910" type="qcurve" smooth="yes"/>
      <point x="177" y="1910"/>
      <point x="455" y="1766"/>
      <point x="524" y="1658" type="qcurve"/>
      <point x="413" y="1608" type="line"/>
      <point x="355" y="1664"/>
      <point x="147" y="1748"/>
      <point x="-9" y="1748" type="qcurve" smooth="yes"/>
      <point x="-165" y="1748"/>
      <point x="-362" y="1667"/>
    </contour>
  </outline>
</glyph>
<glyph name="breveinvertedcomb.case" format="2">
  <anchor x="0" y="1456" name="_top"/>
  <anchor x="0" y="1936" name="top"/>
  <outline>
    <contour>
      <point x="-441" y="1599" type="qcurve"/>
      <point x="-523" y="1657" type="line"/>
      <point x="-465" y="1761"/>
      <point x="-206" y="1936"/>
      <point x="1" y="1936" type="qcurve" smooth="yes"/>
      <point x="187" y="1936"/>
      <point x="465" y="1775"/>
      <point x="534" y="1654" type="qcurve"/>
      <point x="453" y="1599" type="line"/>
      <point x="385" y="1666"/>
      <point x="157" y="1768"/>
      <point x="1" y="1768" type="qcurve" smooth="yes"/>
      <point x="-155" y="1768"/>
      <point x="-374" y="1669"/>
    </contour>
  </outline>
</glyph>
<glyph name="caroncomb-stack.case" format="2">
  <anchor x="0.0" y="1456" name="_top"/>
  <anchor x="0.0" y="1900" name="top"/>
  <outline>
    <contour>
      <point x="-71" y="1591" type="line"/>
      <point x="-550" y="1880" type="line"/>
      <point x="-340" y="1880" type="line"/>
      <point x="0" y="1726" type="line"/>
      <point x="330" y="1880" type="line"/>
      <point x="550" y="1880" type="line"/>
      <point x="81" y="1591" type="line"/>
    </contour>
  </outline>
</glyph>
<glyph name="circumflexcomb.case" format="2">
  <anchor x="0" y="1456" name="_top"/>
  <anchor x="0" y="1975" name="top"/>
  <outline>
    <contour>
      <point x="-330" y="1635" type="line"/>
      <point x="-497" y="1635" type="line"/>
      <point x="-67" y="1975" type="line"/>
      <point x="68" y="1975" type="line"/>
      <point x="507" y="1635" type="line"/>
      <point x="340" y="1635" type="line"/>
      <point x="0" y="1817" type="line"/>
    </contour>
  </outline>
</glyph>
<glyph name="dieresisbelowcomb.case" format="2">
  <anchor x="0" y="0" name="_bottom"/>
  <anchor x="0" y="-298" name="bottom"/>
  <outline>
    <contour>
      <point x="-466" y="-185" type="qcurve" smooth="yes"/>
      <point x="-466" y="-130"/>
      <point x="-406" y="-71"/>
      <point x="-350" y="-71" type="qcurve" smooth="yes"/>
      <point x="-297" y="-71"/>
      <point x="-234" y="-134"/>
      <point x="-234" y="-185" type="qcurve" smooth="yes"/>
      <point x="-234" y="-239"/>
      <point x="-293" y="-298"/>
      <point x="-350" y="-298" type="qcurve" smooth="yes"/>
      <point x="-403" y="-298"/>
      <point x="-466" y="-236"/>
    </contour>
    <contour>
      <point x="234" y="-185" type="qcurve" smooth="yes"/>
      <point x="234" y="-130"/>
      <point x="294" y="-71"/>
      <point x="350" y="-71" type="qcurve" smooth="yes"/>
      <point x="403" y="-71"/>
      <point x="466" y="-134"/>
      <point x="466" y="-185" type="qcurve" smooth="yes"/>
      <point x="466" y="-239"/>
      <point x="407" y="-298"/>
      <point x="350" y="-298" type="qcurve" smooth="yes"/>
      <point x="297" y="-298"/>
      <point x="234" y="-236"/>
    </contour>
  </outline>
</glyph>
<glyph name="gravecomb.case" format="2">
  <anchor x="0" y="1455" name="_top"/>
  <anchor x="0" y="1974" name="top"/>
  <outline>
    <contour>
      <point x="-10" y="1600" type="line"/>
      <point x="-547" y="1876" type="line"/>
      <point x="-390" y="1973" type="line"/>
      <point x="102" y="1675" type="line"/>
    </contour>
  </outline>
</glyph>
<glyph name="ringcomb.case" format="2">
  <anchor x="0" y="1456" name="_top"/>
  <anchor x="0" y="2058" name="top"/>
  <outline>
    <contour>
      <point x="-256" y="1847" type="qcurve" smooth="yes"/>
      <point x="-256" y="1955"/>
      <point x="-111" y="2095"/>
      <point x="0" y="2095" type="qcurve" smooth="yes"/>
      <point x="111" y="2095"/>
      <point x="256" y="1955"/>
      <point x="256" y="1847" type="qcurve" smooth="yes"/>
      <point x="256" y="1739"/>
      <point x="111" y="1600"/>
      <point x="0" y="1600" type="qcurve"/>
      <point x="-111" y="1600"/>
      <point x="-256" y="1739"/>
    </contour>
    <contour>
      <point x="-130" y="1847" type="qcurve" smooth="yes"/>
      <point x="-130" y="1788"/>
      <point x="-62" y="1719"/>
      <point x="0" y="1719" type="qcurve" smooth="yes"/>
      <point x="65" y="1719"/>
      <point x="130" y="1783"/>
      <point x="130" y="1847" type="qcurve" smooth="yes"/>
      <point x="130" y="1906"/>
      <point x="62" y="1976"/>
      <point x="0" y="1976" type="qcurve" smooth="yes"/>
      <point x="-65" y="1976"/>
      <point x="-130" y="1910"/>
    </contour>
  </outline>
</glyph>
<glyph name="tildecomb-stack.case" format="2">
  <anchor x="0" y="1456" name="_top"/>
  <anchor x="0" y="1861" name="top"/>
  <outline>
    <contour>
      <point x="-488" y="1715" type="line"/>
      <point x="-428" y="1787"/>
      <point x="-282" y="1861"/>
      <point x="-181" y="1861" type="qcurve" smooth="yes"/>
      <point x="-129" y="1861"/>
      <point x="-21" y="1837"/>
      <point x="33" y="1811" type="qcurve" smooth="yes"/>
      <point x="78" y="1789"/>
      <point x="177" y="1756"/>
      <point x="225" y="1756" type="qcurve" smooth="yes"/>
      <point x="285" y="1756"/>
      <point x="356" y="1796"/>
      <point x="387" y="1835" type="qcurve"/>
      <point x="488" y="1744" type="line"/>
      <point x="440" y="1670"/>
      <point x="309" y="1596"/>
      <point x="212" y="1596" type="qcurve" smooth="yes"/>
      <point x="138" y="1596"/>
      <point x="15" y="1633"/>
      <point x="-30" y="1653" type="qcurve" smooth="yes"/>
      <point x="-76" y="1674"/>
      <point x="-171" y="1709"/>
      <point x="-207" y="1709" type="qcurve" smooth="yes"/>
      <point x="-261" y="1709"/>
      <point x="-352" y="1654"/>
      <point x="-381" y="1624" type="qcurve"/>
    </contour>
  </outline>
</glyph>
